<svg width="32" height="30" viewBox="0 0 32 30" fill="none" xmlns="http://www.w3.org/2000/svg">
<path d="M12.6366 9.25997L12.4323 9.34416C12.0884 8.74334 11.4414 8.33734 10.701 8.33734H7.53733C6.43789 8.33734 5.54346 9.23178 5.54346 10.3312V19.3292C5.54346 20.4286 6.43796 21.323 7.53733 21.323H10.701C11.3273 21.323 11.8869 21.0324 12.2527 20.5792C13.3536 21.067 14.5559 21.323 15.7605 21.323H22.4453C23.5664 21.323 24.4785 20.4109 24.4785 19.2898C24.4785 18.939 24.3892 18.6088 24.2322 18.3204C24.931 17.9983 25.4174 17.2917 25.4174 16.4732C25.4174 16.1367 25.3348 15.8194 25.1895 15.5396C25.9321 15.2364 26.4569 14.5068 26.4569 13.6565C26.4569 12.8063 25.9321 12.0767 25.1895 11.7735C25.3348 11.4937 25.4174 11.1764 25.4174 10.84C25.4174 9.71884 24.5053 8.80666 23.3841 8.80666H20.0535C19.7386 8.80666 19.4825 8.55053 19.4825 8.23572V6.39716C19.4825 4.56416 17.9913 3.07291 16.1583 3.07291C15.3545 3.07291 14.7006 3.72684 14.7006 4.53059V6.17734C14.7005 7.53347 13.8904 8.74347 12.6366 9.25997ZM10.7009 20.073H7.53727C7.12708 20.073 6.79339 19.7393 6.79339 19.3292V10.3312C6.79339 9.92109 7.12708 9.58734 7.53727 9.58734H10.7009C11.1111 9.58734 11.4448 9.92109 11.4448 10.3312V19.3292C11.4448 19.7393 11.1111 20.073 10.7009 20.073ZM15.9505 6.17747V4.53072C15.9505 4.41622 16.0437 4.32303 16.1582 4.32303C17.302 4.32303 18.2325 5.25353 18.2325 6.39728V8.23584C18.2325 9.23991 19.0493 10.0568 20.0534 10.0568H23.3841C23.816 10.0568 24.1673 10.4082 24.1673 10.8401C24.1673 11.272 23.816 11.6233 23.3841 11.6233H19.4833C19.1382 11.6233 18.8583 11.9032 18.8583 12.2483C18.8583 12.5935 19.1382 12.8733 19.4833 12.8733H24.4235C24.8555 12.8733 25.2068 13.2247 25.2068 13.6566C25.2068 14.0885 24.8555 14.4399 24.4235 14.4399H19.4833C19.1382 14.4399 18.8583 14.7197 18.8583 15.0649C18.8583 15.41 19.1382 15.6899 19.4833 15.6899H23.3841C23.816 15.6899 24.1673 16.0413 24.1673 16.4732C24.1673 16.905 23.816 17.2564 23.3841 17.2564H19.4833C19.1382 17.2564 18.8583 17.5363 18.8583 17.8814C18.8583 18.2265 19.1382 18.5064 19.4833 18.5064H22.4453C22.8771 18.5064 23.2285 18.8578 23.2285 19.2897C23.2285 19.7216 22.8771 20.073 22.4453 20.073H15.7604C14.7054 20.073 13.6527 19.8428 12.6928 19.4059C12.6938 19.3804 12.6948 19.3548 12.6948 19.3291V10.5878L13.1127 10.4157C14.8366 9.70553 15.9505 8.04197 15.9505 6.17747Z" fill="#FF9846"/>
<path d="M26.375 0.25H18.8125C18.4674 0.25 18.1875 0.529875 18.1875 0.875C18.1875 1.22012 18.4674 1.5 18.8125 1.5H26.375C28.7874 1.5 30.75 3.46263 30.75 5.875V20.375C30.75 22.7874 28.7874 24.75 26.375 24.75H18.1651C17.9418 24.75 17.7354 24.8691 17.6238 25.0625L16 27.875L14.3762 25.0625C14.2646 24.8691 14.0582 24.75 13.8349 24.75H5.625C3.21263 24.75 1.25 22.7874 1.25 20.375V5.875C1.25 3.46263 3.21263 1.5 5.625 1.5H13.1874C13.5326 1.5 13.8124 1.22012 13.8124 0.875C13.8124 0.529875 13.5326 0.25 13.1874 0.25H5.625C2.52338 0.25 0 2.77338 0 5.875V20.375C0 23.4766 2.52338 26 5.625 26H13.4741L15.4587 29.4375C15.5703 29.6309 15.7766 29.75 15.9999 29.75C16.2232 29.75 16.4296 29.6309 16.5412 29.4375L18.5258 26H26.375C29.4766 26 32 23.4766 32 20.375V5.875C32 2.77338 29.4766 0.25 26.375 0.25Z" fill="#FF9846"/>
<path d="M16 1.5C16.1644 1.5 16.325 1.43313 16.4418 1.31681C16.5581 1.20063 16.625 1.03938 16.625 0.875C16.625 0.710625 16.5581 0.549375 16.4418 0.433125C16.3256 0.316813 16.1644 0.25 16 0.25C15.8356 0.25 15.6744 0.316813 15.5581 0.433125C15.4419 0.549375 15.375 0.710625 15.375 0.875C15.375 1.03938 15.4419 1.20063 15.5581 1.31681C15.6744 1.43313 15.8356 1.5 16 1.5Z" fill="#FF9846"/>
</svg>
