<svg width="34" height="30" viewBox="0 0 34 30" fill="none" xmlns="http://www.w3.org/2000/svg">
<path d="M22.3811 25.9435C22.4365 25.9528 22.4916 25.9573 22.546 25.9573C23.0242 25.9573 23.4462 25.612 23.5274 25.1247L24.5235 19.1482C24.6139 18.6056 24.2474 18.0923 23.7047 18.0019C23.162 17.9112 22.6488 18.278 22.5584 18.8207L21.5623 24.7972C21.4718 25.3399 21.8384 25.8532 22.3811 25.9435Z" fill="#FF9846"/>
<path d="M10.5389 25.1247C10.6201 25.6119 11.042 25.9572 11.5202 25.9572C11.5746 25.9572 11.6297 25.9527 11.6852 25.9434C12.2278 25.853 12.5944 25.3398 12.504 24.7971L11.5079 18.8206C11.4174 18.2779 10.9043 17.9114 10.3616 18.0018C9.81888 18.0922 9.45232 18.6054 9.54276 19.1481L10.5389 25.1247Z" fill="#FF9846"/>
<path d="M33.0039 10.0196H29.4983L21.8286 0.43248C21.485 0.00303084 20.8582 -0.0667624 20.4286 0.276956C19.999 0.620609 19.9293 1.24742 20.273 1.677L26.9471 10.0196H7.05294L13.727 1.677C14.0707 1.24742 14.001 0.620542 13.5715 0.276956C13.1419 -0.0667624 12.5151 0.00296444 12.1715 0.43248L4.50175 10.0196H0.996094C0.445984 10.0196 0 10.4655 0 11.0156V15C0 15.5501 0.445984 15.9961 0.996094 15.9961H2.23696L6.01495 29.219C6.13707 29.6467 6.52793 29.9414 6.97266 29.9414H27.0273C27.4721 29.9414 27.8629 29.6467 27.9851 29.219L31.763 15.9961H33.0039C33.554 15.9961 34 15.5501 34 15V11.0156C34 10.4655 33.554 10.0196 33.0039 10.0196ZM26.276 27.9492H7.72398L4.30884 15.9961H29.6912L26.276 27.9492ZM32.0078 14.0039C28.5955 14.0039 5.22484 14.0039 1.99219 14.0039V12.0117H32.0078V14.0039Z" fill="#FF9846"/>
<path d="M17 25.957C17.5501 25.957 17.9961 25.511 17.9961 24.9609V18.9844C17.9961 18.4343 17.5501 17.9883 17 17.9883C16.4499 17.9883 16.0039 18.4343 16.0039 18.9844V24.9609C16.0039 25.5111 16.4499 25.957 17 25.957Z" fill="#FF9846"/>
</svg>
