<svg width="15" height="15" viewBox="0 0 15 15" fill="none" xmlns="http://www.w3.org/2000/svg">
<path d="M7.49992 2.44559C7.67926 2.44559 7.826 2.29885 7.826 2.1195V1.95646C7.826 1.77711 7.67926 1.63037 7.49992 1.63037C7.32057 1.63037 7.17383 1.77711 7.17383 1.95646V2.1195C7.17383 2.29885 7.32057 2.44559 7.49992 2.44559Z" fill="#FF9846"/>
<path d="M7.49992 12.5544C7.32057 12.5544 7.17383 12.7012 7.17383 12.8805V13.0436C7.17383 13.2229 7.32057 13.3697 7.49992 13.3697C7.67926 13.3697 7.826 13.2229 7.826 13.0436V12.8805C7.826 12.7012 7.67926 12.5544 7.49992 12.5544Z" fill="#FF9846"/>
<path d="M2.1195 7.17383H1.95646C1.77711 7.17383 1.63037 7.32057 1.63037 7.49991C1.63037 7.67926 1.77711 7.826 1.95646 7.826H2.1195C2.29885 7.826 2.44559 7.67926 2.44559 7.49991C2.44559 7.32057 2.29885 7.17383 2.1195 7.17383Z" fill="#FF9846"/>
<path d="M13.0436 7.17383H12.8805C12.7012 7.17383 12.5544 7.32057 12.5544 7.49991C12.5544 7.67926 12.7012 7.826 12.8805 7.826H13.0436C13.2229 7.826 13.3697 7.67926 13.3697 7.49991C13.3697 7.32057 13.2229 7.17383 13.0436 7.17383Z" fill="#FF9846"/>
<path d="M3.81533 3.35881C3.6849 3.22838 3.48925 3.22838 3.35881 3.35881C3.22838 3.48925 3.22838 3.6849 3.35881 3.81533L3.47294 3.92947C3.53816 3.99468 3.61968 4.02729 3.7012 4.02729C3.78273 4.02729 3.86425 3.99468 3.92946 3.92947C4.0599 3.79903 4.0599 3.60338 3.92946 3.47294L3.81533 3.35881Z" fill="#FF9846"/>
<path d="M3.47294 11.0707L3.35881 11.1849C3.22838 11.3153 3.22838 11.5109 3.35881 11.6414C3.42403 11.7066 3.50555 11.7392 3.58707 11.7392C3.6686 11.7392 3.75012 11.7066 3.81533 11.6414L3.92946 11.5272C4.0599 11.3968 4.0599 11.2012 3.92946 11.0707C3.79903 10.9403 3.60338 10.9403 3.47294 11.0707Z" fill="#FF9846"/>
<path d="M11.1849 3.35881L11.0707 3.47294C10.9403 3.60338 10.9403 3.79903 11.0707 3.92947C11.1359 3.99468 11.2175 4.02729 11.299 4.02729C11.3805 4.02729 11.462 3.99468 11.5272 3.92947L11.6414 3.81533C11.7718 3.6849 11.7718 3.48925 11.6414 3.35881C11.5109 3.22838 11.3153 3.22838 11.1849 3.35881Z" fill="#FF9846"/>
<path d="M7.826 7.36965V4.40226C7.826 4.22291 7.67926 4.07617 7.49992 4.07617C7.32057 4.07617 7.17383 4.22291 7.17383 4.40226V7.50009C7.17383 7.58161 7.20644 7.66313 7.27165 7.72835L10.8423 11.299C10.9075 11.3642 10.989 11.3968 11.0706 11.3968C11.1521 11.3968 11.2336 11.3642 11.2988 11.299C11.4293 11.1686 11.4293 10.9729 11.2988 10.8425L7.826 7.36965Z" fill="#FF9846"/>
<path d="M7.5 0C3.3587 0 0 3.3587 0 7.5C0 11.6413 3.3587 15 7.5 15C11.6413 15 15 11.6413 15 7.5C15 3.3587 11.6413 0 7.5 0ZM7.5 14.3478C3.71739 14.3478 0.652174 11.2826 0.652174 7.5C0.652174 3.71739 3.71739 0.652174 7.5 0.652174C11.2826 0.652174 14.3478 3.71739 14.3478 7.5C14.3478 11.2826 11.2826 14.3478 7.5 14.3478Z" fill="#FF9846"/>
</svg>
